<?xml version="1.0" standalone="no"?>
<!DOCTYPE svg PUBLIC "-//W3C//DTD SVG 20010904//EN"
 "http://www.w3.org/TR/2001/REC-SVG-20010904/DTD/svg10.dtd">
<svg version="1.0" xmlns="http://www.w3.org/2000/svg"
 width="50.000000pt" height="50.000000pt" viewBox="0 0 50.000000 50.000000"
 preserveAspectRatio="xMidYMid meet">

<g transform="translate(0.000000,50.000000) scale(0.100000,-0.100000)"
fill="#00000" stroke="none">
<path d="M82 450 c-36 -15 -44 -53 -40 -217 3 -130 6 -155 21 -170 16 -16 38
-18 187 -18 149 0 171 2 187 18 16 16 18 38 18 187 0 149 -2 171 -18 187 -15
16 -39 18 -175 20 -86 1 -167 -2 -180 -7z m346 -22 c17 -17 17 -339 0 -356
-17 -17 -339 -17 -356 0 -17 17 -17 339 0 356 17 17 339 17 356 0z"/>
<path d="M241 324 c-34 -37 -61 -70 -61 -74 0 -11 129 -147 130 -137 0 5 -28
38 -62 73 l-62 65 50 52 c55 57 79 87 71 87 -3 0 -33 -30 -66 -66z"/>
</g>
</svg>
