<?xml version="1.0" standalone="no"?>
<!DOCTYPE svg PUBLIC "-//W3C//DTD SVG 20010904//EN"
 "http://www.w3.org/TR/2001/REC-SVG-20010904/DTD/svg10.dtd">
<svg version="1.0" xmlns="http://www.w3.org/2000/svg"
 width="32.000000pt" height="32.000000pt" viewBox="0 0 32.000000 32.000000"
 preserveAspectRatio="xMidYMid meet">

<g transform="translate(0.000000,32.000000) scale(0.100000,-0.100000)"
fill="#000000" stroke="none">
<path d="M112 247 c-26 -27 -28 -54 -6 -85 14 -20 14 -23 -1 -28 -27 -11 -58
-84 -35 -84 6 0 10 6 10 13 0 7 6 22 14 33 14 19 15 19 40 -5 l26 -24 26 24
c25 24 26 24 40 5 8 -11 14 -26 14 -33 0 -7 5 -13 10 -13 23 0 -8 73 -35 84
-15 5 -15 8 -1 28 22 32 20 61 -7 86 -30 28 -68 28 -95 -1z m82 -13 c31 -30 9
-84 -34 -84 -24 0 -50 26 -50 50 0 24 26 50 50 50 10 0 26 -7 34 -16z m-17
-121 c-16 -16 -18 -16 -34 0 -16 16 -15 17 17 17 32 0 33 -1 17 -17z"/>
</g>
</svg>
