<?xml version="1.0" standalone="no"?>
<!DOCTYPE svg PUBLIC "-//W3C//DTD SVG 20010904//EN"
 "http://www.w3.org/TR/2001/REC-SVG-20010904/DTD/svg10.dtd">
<svg version="1.0" xmlns="http://www.w3.org/2000/svg"
 width="48.000000pt" height="48.000000pt" viewBox="0 0 48.000000 48.000000"
 preserveAspectRatio="xMidYMid meet">

<g transform="translate(0.000000,48.000000) scale(0.100000,-0.100000)"
fill="#000000" stroke="none">
<path d="M132 398 c-17 -17 -17 -299 0 -316 16 -16 200 -16 216 0 7 7 12 27
12 45 0 25 -4 31 -15 27 -8 -4 -15 -17 -15 -30 0 -24 -2 -24 -90 -24 l-90 0 0
140 0 140 90 0 c88 0 90 0 90 -24 0 -13 7 -26 15 -30 11 -4 15 2 15 27 0 18
-5 38 -12 45 -16 16 -200 16 -216 0z"/>
<path d="M320 296 c0 -8 5 -18 10 -21 25 -15 5 -25 -51 -25 -80 0 -77 -24 4
-28 53 -3 56 -4 45 -22 -23 -36 3 -34 39 3 l37 37 -34 35 c-37 38 -50 43 -50
21z"/>
</g>
</svg>
