<?xml version="1.0" standalone="no"?>
<!DOCTYPE svg PUBLIC "-//W3C//DTD SVG 20010904//EN"
 "http://www.w3.org/TR/2001/REC-SVG-20010904/DTD/svg10.dtd">
<svg version="1.0" xmlns="http://www.w3.org/2000/svg"
 width="50.000000pt" height="50.000000pt" viewBox="0 0 50.000000 50.000000"
 preserveAspectRatio="xMidYMid meet">

<g transform="translate(0.000000,50.000000) scale(0.100000,-0.100000)"
fill="#000000" stroke="none">
<path d="M275 486 c-64 -29 -105 -107 -92 -175 5 -24 -5 -38 -89 -122 -84 -83
-94 -98 -94 -129 0 -46 15 -60 60 -60 36 0 70 23 70 48 0 7 5 12 12 12 6 0 39
28 73 62 62 61 62 61 123 62 100 2 157 58 157 156 0 63 -16 95 -67 133 -33 25
-113 32 -153 13z m133 -26 c97 -59 92 -191 -9 -242 -66 -34 -138 -12 -179 54
-71 117 71 259 188 188z m-159 -277 c-6 -7 -17 -13 -24 -13 -7 0 -15 -9 -18
-20 -3 -11 -11 -20 -19 -20 -7 0 -18 -10 -23 -22 -6 -13 -20 -24 -32 -26 -14
-2 -23 -10 -23 -21 0 -9 -5 -22 -12 -29 -13 -13 -68 -17 -68 -5 0 4 37 45 82
90 45 45 79 86 75 90 -4 4 -43 -29 -87 -72 -44 -44 -80 -73 -80 -65 0 8 39 54
87 102 l87 88 33 -32 c25 -24 30 -35 22 -45z"/>
<path d="M288 434 c-16 -8 -28 -18 -28 -22 0 -9 143 -152 152 -152 11 0 38 56
38 80 0 34 -28 78 -60 95 -36 19 -67 19 -102 -1z m113 -33 c30 -30 38 -72 19
-101 -8 -12 -21 -3 -72 48 -51 51 -60 64 -48 72 29 19 71 11 101 -19z"/>
</g>
</svg>
