<?xml version="1.0" standalone="no"?>
<!DOCTYPE svg PUBLIC "-//W3C//DTD SVG 20010904//EN"
 "http://www.w3.org/TR/2001/REC-SVG-20010904/DTD/svg10.dtd">
<svg version="1.0" xmlns="http://www.w3.org/2000/svg"
 width="48.000000pt" height="48.000000pt" viewBox="0 0 48.000000 48.000000"
 preserveAspectRatio="xMidYMid meet">

<g transform="translate(0.000000,48.000000) scale(0.100000,-0.100000)"
fill="#000000" stroke="none">
<path d="M20 406 c0 -9 12 -16 28 -18 26 -3 28 -7 47 -105 26 -131 38 -145
119 -141 74 4 77 22 4 26 -29 2 -58 8 -64 13 -7 5 -20 55 -30 110 -9 56 -24
107 -31 115 -19 19 -73 19 -73 0z"/>
<path d="M170 365 c0 -13 21 -15 125 -15 l125 0 -1 -27 c0 -16 -6 -53 -12 -83
-9 -41 -18 -58 -34 -65 -28 -12 -30 -35 -5 -35 36 0 60 41 73 127 17 114 19
113 -142 113 -108 0 -129 -2 -129 -15z"/>
<path d="M250 300 c0 -13 -7 -20 -20 -20 -11 0 -20 -7 -20 -15 0 -8 9 -15 20
-15 13 0 20 -7 20 -20 0 -11 7 -20 15 -20 8 0 15 9 15 20 0 13 7 20 20 20 11
0 20 7 20 15 0 8 -9 15 -20 15 -13 0 -20 7 -20 20 0 11 -7 20 -15 20 -8 0 -15
-9 -15 -20z"/>
<path d="M174 106 c-10 -26 4 -48 28 -44 33 4 33 52 0 56 -13 2 -25 -3 -28
-12z"/>
<path d="M314 106 c-10 -26 4 -48 28 -44 33 4 33 52 0 56 -13 2 -25 -3 -28
-12z"/>
</g>
</svg>
