<?xml version="1.0" standalone="no"?>
<!DOCTYPE svg PUBLIC "-//W3C//DTD SVG 20010904//EN"
 "http://www.w3.org/TR/2001/REC-SVG-20010904/DTD/svg10.dtd">
<svg version="1.0" xmlns="http://www.w3.org/2000/svg"
 width="48.000000pt" height="48.000000pt" viewBox="0 0 48.000000 48.000000"
 preserveAspectRatio="xMidYMid meet">

<g transform="translate(0.000000,48.000000) scale(0.100000,-0.100000)"
fill="#000000" stroke="none">
<path d="M165 390 c-16 -11 -40 -20 -52 -20 -26 0 -27 -3 -13 -28 5 -9 13 -68
18 -130 5 -63 14 -118 21 -125 16 -16 186 -16 202 0 7 7 16 62 21 125 5 62 13
121 18 130 14 25 13 28 -15 28 -14 0 -36 7 -50 16 -18 11 -29 13 -43 5 -14 -8
-24 -6 -38 4 -25 19 -34 18 -69 -5z m170 -157 c-4 -60 -12 -114 -17 -120 -14
-17 -142 -17 -156 0 -5 6 -13 60 -17 120 l-7 107 102 0 102 0 -7 -107z"/>
</g>
</svg>
