<?xml version="1.0" standalone="no"?>
<!DOCTYPE svg PUBLIC "-//W3C//DTD SVG 20010904//EN"
 "http://www.w3.org/TR/2001/REC-SVG-20010904/DTD/svg10.dtd">
<svg version="1.0" xmlns="http://www.w3.org/2000/svg"
 width="50.000000pt" height="50.000000pt" viewBox="0 0 50.000000 50.000000"
 preserveAspectRatio="xMidYMid meet">

<g transform="translate(0.000000,50.000000) scale(0.100000,-0.100000)"
fill="#000000" stroke="none">
<path d="M307 431 c-29 -27 -49 -53 -45 -56 4 -4 29 14 56 39 56 52 87 58 120
23 35 -37 28 -67 -26 -120 -53 -52 -83 -59 -118 -26 -13 12 -24 16 -28 11 -10
-16 44 -52 77 -52 23 0 43 12 84 53 64 65 70 101 24 148 -45 45 -81 40 -144
-20z"/>
<path d="M207 292 c-42 -43 -67 -76 -67 -90 0 -25 33 -62 55 -62 22 0 18 14
-7 25 -43 19 -35 52 30 117 65 65 98 73 117 31 11 -26 25 -30 25 -8 0 23 -37
55 -63 55 -15 0 -46 -24 -90 -68z"/>
<path d="M66 190 c-57 -60 -61 -97 -17 -141 47 -46 83 -40 148 24 41 41 53 61
53 84 0 33 -36 87 -52 77 -5 -4 -1 -15 11 -28 34 -36 27 -66 -27 -119 -54 -53
-86 -60 -120 -24 -32 34 -28 67 14 108 20 18 40 42 45 52 18 33 -8 17 -55 -33z"/>
<path d="M280 215 c-13 -14 -19 -25 -13 -25 12 0 48 38 41 45 -2 3 -15 -6 -28
-20z"/>
</g>
</svg>
